<?xml version="1.0" encoding="UTF-8"?>
<svg width="600px" height="120px" viewBox="0 0 600 120" version="1.1" xmlns="http://www.w3.org/2000/svg" xmlns:xlink="http://www.w3.org/1999/xlink">
    <!-- Generator: Sketch 52.5 (67469) - http://www.bohemiancoding.com/sketch -->
    <title>logo-bancobogota-white</title>
    <desc>Created with Sketch.</desc>
    <defs>
        <path d="M58.7399031,0.0567043619 C27.358643,0.600969305 1.41760905,22.4970921 0.275767367,52.6075929 C-0.84911147,82.712084 22.638126,108.047787 52.7447496,109.173635 C68.0646204,109.760549 82.1534733,103.953441 92.4523425,94.1406785 C102.363489,84.6802585 101.956381,68.0510501 94.0759289,75.5966074 C85.4054927,83.8863974 73.2891761,88.8439095 60.0678514,88.364588 C34.8707593,87.4597415 15.2084006,67.1084006 16.1583199,42.9198708 C17.0306947,20.4736672 39.2810985,2.70726979 59.2148627,1.63231018 L59.733441,0.0513731826 C59.4038772,0.0513731826 59.0743134,0.0513731826 58.7399031,0.0567043619 Z" id="path-1"></path>
        <linearGradient x1="28.6013088%" y1="44.3971956%" x2="87.1663943%" y2="57.3653944%" id="linearGradient-3">
            <stop stop-color="#E30513" offset="0%"></stop>
            <stop stop-color="#890F01" offset="100%"></stop>
        </linearGradient>
        <path d="M33.0775444,0.0513731826 C32.7479806,0.0513731826 32.4184168,0.0513731826 32.0840065,0.0567043619 C20.447496,0.25638126 9.58642973,3.39983845 0.445880452,8.78578352 L5.42326333,12.9208401 C13.3521809,6.3184168 23.2148627,2.14168013 32.5589661,1.63231018 C33.8723748,1.56494346 35.1712439,1.56494346 36.46042,1.64491115 C48.8772213,2.39903069 60.2180937,7.95945073 59.8642973,15.9852989 L66.0630048,8.68061389 C57.819063,3.21615509 45.5476575,0.0508885299 33.2810985,0.0508885299 C33.2132472,0.0508885299 33.1453958,0.0508885299 33.0775444,0.0513731826 Z" id="path-4"></path>
        <linearGradient x1="10.3257257%" y1="49.9969585%" x2="88.6542581%" y2="49.9969585%" id="linearGradient-6">
            <stop stop-color="#E30513" offset="0%"></stop>
            <stop stop-color="#FFCC00" offset="100%"></stop>
        </linearGradient>
        <path d="M0.208400646,11.401454 C16.8804523,13.4825525 52.0129241,32.3185784 55.2261712,50.2578029 C55.2067851,49.9694346 54.1793215,42.8326333 54.1793215,42.8326333 C51.6300485,25.8993538 55.1922456,9.46962843 81.1163166,8.1276252 C68.6898223,2.1542811 57.634895,0.0455573506 47.7528271,0.0445880452 C27.7221325,0.0436187399 12.4701131,8.69369952 0.208400646,11.401454 Z" id="path-7"></path>
        <linearGradient x1="50%" y1="-0.782768665%" x2="50%" y2="35.65796%" id="linearGradient-9">
            <stop stop-color="#E39A00" offset="0%"></stop>
            <stop stop-color="#FFCC00" offset="100%"></stop>
        </linearGradient>
        <path d="M28.2116317,35.6125687 C28.5169628,36.477189 30.1260097,43.1557027 26.4135703,50.1172536 C21.819063,57.9536026 14.3747981,63.8537641 0.00969305331,67.6989984 C36.819063,69.3880129 78.9402262,34.038126 41.0452342,0.0271405493 C25.0371567,6.62617124 26.6704362,24.9072698 28.2116317,35.6125687 Z" id="path-10"></path>
        <linearGradient x1="23.063681%" y1="25.490131%" x2="50%" y2="50%" id="linearGradient-12">
            <stop stop-color="#E49B00" offset="0%"></stop>
            <stop stop-color="#FFCC00" offset="100%"></stop>
        </linearGradient>
    </defs>
    <g id="logo-bancobogota-white" stroke="none" stroke-width="1" fill="none" fill-rule="evenodd">
        <path d="M134.301729,72.7104685 L135.24916,72.4369144 L136.554023,76.818546 L135.750994,77.1707351 C130.737423,79.3267609 127.360889,80.16458 123.69126,80.16458 C115.258263,80.16458 109.604653,73.7308158 109.604653,64.152609 C109.604653,54.0983037 115.467003,47.5854281 124.54147,47.5854281 C128.832553,47.5854281 132.898691,49.1138045 134.445654,49.7681422 L135.045186,50.020727 L134.958449,55.8773586 C134.958449,55.8773586 130.591115,54.1207027 130.497229,54.0892488 C130.482456,54.0840065 128.852092,53.4701777 126.300985,53.4701777 C121.239281,53.4701777 118.682932,57.043538 118.682932,64.0973263 C118.682932,68.6576737 119.970638,74.0949192 126.171834,74.0949192 C128.41269,74.0949192 131.150137,73.6302585 134.301729,72.7104685 Z M24.5765024,72.2477141 C26.194475,71.0391195 27.120937,68.9245557 27.120937,66.4582795 C27.120937,64.152609 26.334588,62.2363005 24.9496607,61.0720275 C23.2630614,59.7280856 20.6247415,59.6208562 17.3501939,59.6208562 L14.3735057,59.6208562 C14.3735057,59.6208562 14.2124233,59.5979806 14.1642892,59.5855897 L14.1642892,73.9081018 L15.7803554,73.9081018 C19.5171809,73.9081018 22.550105,73.7841922 24.5765024,72.2477141 Z M14.1642892,41.6139418 L14.1642892,57.0931018 C14.1642892,57.0931018 15.8470759,54.2407997 15.8470759,54.2732068 C15.8470759,54.2732068 19.4871567,53.8895638 19.511462,53.8895638 C24.6241599,53.380105 25.9466559,51.6630048 25.9466559,47.3380856 C25.9466559,45.4603796 25.3433118,43.9191357 24.2576737,42.9869548 C22.64542,41.5963086 20.0166317,41.6034572 16.6677383,41.6139418 L14.1642892,41.6139418 Z M29.1549596,56.4654523 C34.0617771,58.0190872 36.583336,61.4437561 36.583336,67.0744911 C36.583336,71.9117286 34.0979968,75.8396607 29.753538,77.8489015 C26.8945638,79.1680614 24.247189,79.5512278 17.9382876,79.5512278 L5.07981422,79.5512278 L5.07981422,41.3575444 C3.91315832,41.1845477 0,40.6097981 0,40.6097981 L0,35.9827302 L16.167811,35.9827302 C23.8039742,35.9827302 26.3193376,36.2534249 29.0034087,37.3586026 C32.8284006,38.902706 35.0258885,42.4546204 35.0258885,47.08979 C35.0258885,51.8522052 33.1300727,54.8184087 29.1549596,56.4654523 Z M279.818223,72.2477141 C281.43143,71.0391195 282.354079,68.9245557 282.354079,66.4582795 C282.354079,64.152609 281.578691,62.2363005 280.178037,61.0720275 C278.493821,59.7280856 275.863603,59.6208562 272.593821,59.6208562 L269.615226,59.6208562 C269.615226,59.6208562 269.451284,59.5979806 269.397431,59.5855897 L269.397431,73.9081018 L271.012544,73.9081018 C274.754612,73.9081018 277.785153,73.7841922 279.818223,72.2477141 Z M269.397431,41.6139418 L269.397431,57.0931018 C269.397431,57.0931018 271.075929,54.2407997 271.075929,54.2732068 L274.741745,53.8895638 C279.851107,53.380105 281.180275,51.6630048 281.180275,47.3380856 C281.180275,45.4603796 280.583126,43.9191357 279.493199,42.9869548 C277.882851,41.5963086 275.245485,41.6034572 271.907553,41.6139418 L269.397431,41.6139418 Z M284.386195,56.4654523 C289.293966,58.0190872 291.822674,61.4437561 291.822674,67.0744911 C291.822674,71.9117286 289.332569,75.8396607 284.994305,77.8489015 C282.138191,79.1680614 279.482237,79.5512278 273.169523,79.5512278 L260.318199,79.5512278 L260.318199,41.3575444 C259.148683,41.1845477 255.236478,40.6097981 255.236478,40.6097981 L255.236478,35.9827302 L271.406672,35.9827302 C279.031874,35.9827302 281.556292,36.2534249 284.230355,37.3586026 C288.062019,38.902706 290.258078,42.4546204 290.258078,47.08979 C290.258078,51.8522052 288.365121,54.8184087 284.386195,56.4654523 Z M96.7147254,47.5849515 C100.12605,47.5849515 102.691454,48.6796446 104.339451,50.8275687 C105.83685,52.7591276 106.047973,54.318958 106.047973,59.0661228 L106.047973,79.5512278 L97.3609612,79.5512278 L97.3781179,59.5279241 C97.3905089,57.6249596 97.4052827,55.9822052 96.5784249,55.1443861 C96.039895,54.601567 95.1048546,54.3442165 93.7285057,54.3442165 C91.0167932,54.3442165 88.2550404,55.1872779 87.0688449,55.5999919 C87.0688449,56.897706 86.9930695,79.5512278 86.9930695,79.5512278 L78.3966074,79.5512278 L78.3966074,53.9100565 L73.5755735,53.9100565 L73.5755735,49.3149192 L86.672811,47.6516721 C86.672811,47.6516721 86.7976737,49.4059451 86.8539095,50.1227141 C90.6936753,48.5290468 94.073546,47.5849515 96.7147254,47.5849515 Z M153.371882,74.5367044 C156.621648,74.5367044 159.946712,73.2690145 159.946712,63.8528433 C159.946712,54.3813893 156.220848,53.2852666 153.427165,53.2852666 C150.185501,53.2852666 146.852811,54.5529564 146.852811,63.9147981 C146.852811,73.436769 150.568667,74.5367044 153.371882,74.5367044 Z M153.427165,47.5849515 C163.196955,47.5849515 169.021179,53.6665267 169.021179,63.8528433 C169.021179,73.9200162 163.042068,80.16458 153.427165,80.16458 C143.622585,80.16458 137.771672,74.0911066 137.771672,63.9147981 C137.771672,53.8404766 143.773183,47.5849515 153.427165,47.5849515 Z M379.516309,74.5367044 C382.76941,74.5367044 386.101147,73.2690145 386.101147,63.8528433 C386.101147,54.3813893 382.377189,53.2852666 379.581123,53.2852666 C376.331357,53.2852666 373.012964,54.5529564 373.012964,63.9147981 C373.012964,73.436769 376.711664,74.5367044 379.516309,74.5367044 Z M379.581123,47.5849515 C389.350913,47.5849515 395.17752,53.6665267 395.17752,63.8528433 C395.17752,73.9200162 389.195073,80.16458 379.581123,80.16458 C369.788934,80.16458 363.94088,74.0911066 363.94088,63.9147981 C363.94088,53.8404766 369.929523,47.5849515 379.581123,47.5849515 Z M415.919023,73.5473344 L417.223885,77.7025929 L416.367003,78.0433441 C412.916123,79.4125444 409.758336,80.1021486 407.005638,80.1021486 C404.005121,80.1021486 401.977771,79.3429645 400.663853,77.7116478 C399.255574,76.0646042 398.982019,73.9652908 398.982019,70.6716801 L398.982019,41.0277544 L406.596737,40.3858078 L407.675703,40.2947819 L407.675703,48.5790872 L416.282649,48.5790872 L416.282649,53.9100565 L407.675703,53.9100565 C407.675703,55.6385945 407.664265,70.5649273 407.664265,70.8313328 C407.664265,73.2623425 407.699055,73.4706058 407.882536,73.7841922 C408.103667,74.1158885 408.466341,74.470937 409.821244,74.470937 L415.919023,73.5473344 Z M311.609596,74.5367044 C314.866511,74.5367044 318.190622,73.2690145 318.190622,63.8528433 C318.190622,54.3813893 314.471906,53.2852666 311.669645,53.2852666 C308.425598,53.2852666 305.100057,54.5529564 305.100057,63.9147981 C305.100057,73.436769 308.821155,74.5367044 311.609596,74.5367044 Z M311.669645,47.5849515 C321.440388,47.5849515 327.265089,53.6665267 327.265089,63.8528433 C327.265089,73.9200162 321.294079,80.16458 311.669645,80.16458 C301.877932,80.16458 296.024637,74.0911066 296.024637,63.9147981 C296.024637,53.8404766 302.018045,47.5849515 311.669645,47.5849515 Z M351.514184,73.2771163 L351.514184,54.1335703 C350.114006,53.8895638 349.323368,53.8376171 348.287771,53.8376171 C342.626058,53.8376171 339.397738,57.57063 339.397738,64.0339418 C339.397738,70.2546769 342.258619,73.63979 347.49475,73.63979 C348.904935,73.63979 349.935767,73.5115913 351.514184,73.2771163 Z M351.752948,50.1050808 L351.752948,48.7873506 L360.401834,48.7873506 L360.401834,80.3890468 C360.401834,85.8416381 359.007851,88.6839321 355.223845,90.6984152 C352.677504,92.0709515 349.080792,92.7805719 344.885977,92.7805719 C341.592843,92.7805719 338.917827,92.365475 332.451179,90.9428982 L332.451179,85.7320258 C335.632795,86.503601 339.766131,86.9744572 342.813829,86.9744572 C349.558796,86.9744572 351.514184,85.4251115 351.514184,80.037811 L351.514184,77.5419871 C346.829451,79.4468578 344.885977,79.9782391 342.872447,79.9782391 C335.078538,79.9782391 330.20937,74.1692649 330.20937,64.9136995 C330.20937,55.2659128 336.35433,48.3817851 345.001309,48.3817851 C347.374653,48.3817851 349.744184,48.9746446 351.752948,50.1050808 Z M60.7628514,73.5220759 L60.7628514,54.1774152 C59.3302666,53.9181583 58.517706,53.8619225 57.4620921,53.8619225 C51.685525,53.8619225 48.3785703,57.6383037 48.3785703,64.177391 C48.3785703,70.4657997 51.3037884,73.8885622 56.6519144,73.8885622 C58.0916478,73.8885622 59.1496446,73.7660824 60.7628514,73.5220759 Z M69.2082391,48.9908481 L69.2082391,73.3881583 L72.7120194,73.3881583 L72.7120194,78.5385057 L60.6718255,79.7523425 L60.497399,79.768546 L60.497399,76.9110016 C56.5647011,79.1680614 54.0093053,80.0573506 52.0386672,80.0573506 C44.4023134,80.0573506 39.6418045,74.2726817 39.6418045,65.0523829 C39.6418045,55.4350969 45.659042,48.5786107 54.1303554,48.5786107 C56.4479402,48.5786107 58.7669548,49.1743296 60.738546,50.2890388 L60.738546,48.9908481 L69.2082391,48.9908481 Z M439.510921,73.5220759 L439.510921,54.1774152 C438.082625,53.9181583 437.273401,53.8619225 436.213974,53.8619225 C430.432641,53.8619225 427.129976,57.6383037 427.129976,64.177391 C427.129976,70.4657997 430.061866,73.8885622 435.40189,73.8885622 C436.84496,73.8885622 437.897237,73.7660824 439.510921,73.5220759 Z M447.960121,48.9908481 L447.960121,73.3881583 L451.461995,73.3881583 L451.461995,78.5385057 L439.252617,79.768546 L439.252617,76.9110016 C435.31706,79.1680614 432.762141,80.0573506 430.794362,80.0573506 C423.158199,80.0573506 418.394354,74.2726817 418.394354,65.0523829 C418.394354,55.4350969 424.411591,48.5786107 432.883667,48.5786107 C435.207447,48.5786107 437.525032,49.1743296 439.492334,50.2890388 L439.492334,48.9908481 L447.960121,48.9908481 Z M444.000735,41.1754927 L428.70458,44.3594911 L427.520767,40.4286995 L441.040727,34.9423667 L441.94336,34.5777868 L444.000735,41.1754927 Z M201.886753,73.2575767 C201.886753,72.6380291 202.102165,54.6997415 202.102165,54.6997415 C198.776624,53.1480129 194.225808,52.5508643 191.566995,55.5456624 C189.887544,57.437189 189.013029,59.5460339 188.937254,62.8334491 C188.937254,63.1737237 188.922956,63.514475 188.922956,63.8528433 C188.922956,66.8371567 189.243691,69.7680937 190.875961,71.7234814 C193.672027,75.0909612 197.992181,74.3031826 201.886753,73.2575767 Z M210.557561,33.9439418 C210.557561,33.9439418 210.207754,73.5597254 210.203465,74.3460743 L213.900258,74.3460743 L213.900258,78.2053796 L202.359039,79.7280372 C202.359039,79.7280372 202.290412,77.795525 202.263724,77.1783603 C199.103554,78.6910097 193.426115,80.2689499 189.145994,78.8649596 C183.318433,76.9496042 179.663102,71.1272859 179.833239,64.0534814 C180.002423,56.23479 183.380864,50.8280452 189.372367,48.812609 C193.73017,47.3409451 198.469233,48.330315 201.865307,49.475525 C201.865307,48.5948142 201.870549,40.117496 201.870549,39.4212197 L197.658578,39.4212197 L197.658578,35.5743053 L209.088756,34.1150323 L210.117205,33.9920759 L210.557561,33.9439418 Z M225.254184,59.7724071 L237.072294,59.7724071 C236.991276,59.0861389 236.913595,52.9249758 231.188021,52.9249758 C225.564435,52.9249758 225.339968,59.2324475 225.254184,59.7724071 Z M231.164669,47.5735137 C231.726551,47.591147 244.513538,47.2632633 244.513538,61.8903069 C244.513538,62.6061228 244.475889,63.3324233 244.409168,64.0758805 L244.385816,64.4323586 L241.859015,64.4323586 L225.036389,64.1006624 C225.047351,66.6603473 225.298506,69.8700808 227.13189,71.999895 C230.526535,75.945937 235.821761,73.8432876 239.936987,72.707609 L242.785,71.8073586 L244.226163,76.2247334 L243.951179,76.3672294 C238.871842,79.1366074 230.858708,81.0300404 225.380953,79.2872052 C219.193102,77.3175202 215.294241,71.3260178 215.483441,64.0310824 C215.659774,55.9736268 219.258869,50.3938853 225.62496,48.3184006 C227.388288,47.7479402 229.18021,47.5039338 231.164669,47.5735137 Z" id="Lettering" fill="#FFFFFF"></path>
        <g id="Emblem" transform="translate(482.229402, 2.231664)">
            <g id="Group-17" transform="translate(0.000000, 0.000000)">
                <mask id="mask-2" fill="white">
                    <use xlink:href="#path-1"></use>
                </mask>
                <g id="Clip-16"></g>
                <path d="M58.7399031,0.0567043619 C27.358643,0.600969305 1.41760905,22.4970921 0.275767367,52.6075929 C-0.84911147,82.712084 22.638126,108.047787 52.7447496,109.173635 C68.0646204,109.760549 82.1534733,103.953441 92.4523425,94.1406785 C102.363489,84.6802585 101.956381,68.0510501 94.0759289,75.5966074 C85.4054927,83.8863974 73.2891761,88.8439095 60.0678514,88.364588 C34.8707593,87.4597415 15.2084006,67.1084006 16.1583199,42.9198708 C17.0306947,20.4736672 39.2810985,2.70726979 59.2148627,1.63231018 L59.733441,0.0513731826 C59.4038772,0.0513731826 59.0743134,0.0513731826 58.7399031,0.0567043619 Z" id="Fill-15" fill="url(#linearGradient-3)" mask="url(#mask-2)"></path>
            </g>
            <path d="M63.1163166,1.64442649 C88.4394184,3.17447496 109.28433,24.7516963 35.5977383,46.2959612 C54.368336,49.9870759 68.2342488,58.7878837 68.2342488,58.7878837 C131.321486,26.7121163 95.4378029,-0.0596122779 59.7285945,0.0508885299 L59.2148627,1.63182553 C60.5282714,1.5644588 61.8271405,1.5644588 63.1163166,1.64442649" id="Fill-18" fill="#FFCC00"></path>
            <g id="Group-21" transform="translate(26.655897, -0.000000)">
                <mask id="mask-5" fill="white">
                    <use xlink:href="#path-4"></use>
                </mask>
                <g id="Clip-20"></g>
                <path d="M33.0775444,0.0513731826 C32.7479806,0.0513731826 32.4184168,0.0513731826 32.0840065,0.0567043619 C20.447496,0.25638126 9.58642973,3.39983845 0.445880452,8.78578352 L5.42326333,12.9208401 C13.3521809,6.3184168 23.2148627,2.14168013 32.5589661,1.63231018 C33.8723748,1.56494346 35.1712439,1.56494346 36.46042,1.64491115 C48.8772213,2.39903069 60.2180937,7.95945073 59.8642973,15.9852989 L66.0630048,8.68061389 C57.819063,3.21615509 45.5476575,0.0508885299 33.2810985,0.0508885299 C33.2132472,0.0508885299 33.1453958,0.0508885299 33.0775444,0.0513731826 Z" id="Fill-19" fill="url(#linearGradient-6)" mask="url(#mask-5)"></path>
            </g>
            <g id="Group-24" transform="translate(34.894992, 34.894992)">
                <mask id="mask-8" fill="white">
                    <use xlink:href="#path-7"></use>
                </mask>
                <g id="Clip-23"></g>
                <path d="M0.208400646,11.401454 C16.8804523,13.4825525 52.0129241,32.3185784 55.2261712,50.2578029 C55.2067851,49.9694346 54.1793215,42.8326333 54.1793215,42.8326333 C51.6300485,25.8993538 55.1922456,9.46962843 81.1163166,8.1276252 C68.6898223,2.1542811 57.634895,0.0455573506 47.7528271,0.0445880452 C27.7221325,0.0436187399 12.4701131,8.69369952 0.208400646,11.401454 Z" id="Fill-22" fill="url(#linearGradient-9)" mask="url(#mask-8)"></path>
            </g>
            <g id="Group-27" transform="translate(61.550889, 47.980614)">
                <mask id="mask-11" fill="white">
                    <use xlink:href="#path-10"></use>
                </mask>
                <g id="Clip-26"></g>
                <path d="M28.2116317,35.6125687 C28.5169628,36.477189 30.1260097,43.1557027 26.4135703,50.1172536 C21.819063,57.9536026 14.3747981,63.8537641 0.00969305331,67.6989984 C36.819063,69.3880129 78.9402262,34.038126 41.0452342,0.0271405493 C25.0371567,6.62617124 26.6704362,24.9072698 28.2116317,35.6125687 Z" id="Fill-25" fill="url(#linearGradient-12)" mask="url(#mask-11)"></path>
            </g>
        </g>
    </g>
</svg>