<?xml version="1.0" encoding="utf-8"?>
<!-- Generator: Adobe Illustrator 22.1.0, SVG Export Plug-In . SVG Version: 6.00 Build 0)  -->
<svg version="1.1" id="Layer_1" xmlns="http://www.w3.org/2000/svg" xmlns:xlink="http://www.w3.org/1999/xlink" x="0px" y="0px"
	 viewBox="0 0 183.3 51.4" style="enable-background:new 0 0 183.3 51.4;" xml:space="preserve">
<style type="text/css">
	.st0{fill-rule:evenodd;clip-rule:evenodd;fill:#000000;}
	.st1{fill:#000000;}
</style>
<g>
	<g>
		<path class="st0" d="M102.7,13l2.9-2.1l-0.2-0.3c-1.2-1.4-2.8-2.4-4.7-2.7C98.6,7.5,96.8,8,95.3,9L95,9.2l2.1,2.9
			c0.1-0.1,0.3-0.2,0.3-0.2c0.8-0.5,1.7-0.7,2.6-0.5c1,0.2,1.8,0.6,2.4,1.3C102.4,12.7,102.6,12.9,102.7,13z M107.2,9.1l2.9-2.1
			l-0.2-0.3c-2-2.6-5-4.5-8.5-5.1c-3.5-0.6-6.9,0.3-9.5,2.1l-0.3,0.2l2.1,2.9L94,6.7c1.9-1.3,4.4-1.9,6.9-1.5
			c2.5,0.4,4.7,1.7,6.1,3.6L107.2,9.1z"/>
		<g>
			<path class="st1" d="M13.3,19c-0.7-0.3-1.5-0.6-2.7-0.6c-2.4,0-4,1.9-4,4.8c0,2.8,1.3,4.9,4.1,4.9c1.1,0,2.3-0.4,3-0.7l0.2,3.3
				c-1.1,0.4-2.3,0.5-3.9,0.5c-5,0-7.5-3.4-7.5-8c0-4.4,2.6-7.8,7.3-7.8c1.6,0,2.7,0.2,3.8,0.5L13.3,19z"/>
			<path class="st1" d="M23.2,15.3c4.5,0,7.9,3,7.9,8c0,4.3-2.9,7.8-7.9,7.8c-5,0-7.9-3.5-7.9-7.8C15.3,18.4,18.7,15.3,23.2,15.3z
				 M23.2,28.1c3,0,3.8-2.7,3.8-5.2c0-2.3-1.2-4.5-3.8-4.5c-2.6,0-3.8,2.2-3.8,4.5C19.4,25.4,20.2,28.1,23.2,28.1z"/>
			<path class="st1" d="M33.9,15.7h3.7v2.1h0.1c1.2-1.7,2.9-2.4,5-2.4c3.6,0,5.1,2.5,5.1,5.9v9.5h-3.9v-8.1c0-1.8,0-4.3-2.6-4.3
				c-2.8,0-3.5,3.1-3.5,5v7.4h-3.9V15.7z"/>
			<path class="st1" d="M63.6,30c-1.4,0.8-3.1,1.2-5.2,1.2c-5,0-7.9-2.9-7.9-7.8c0-4.4,2.3-8,7-8c5.6,0,7.2,3.8,7.2,9.1H54.3
				c0.2,2.4,1.9,3.8,4.3,3.8c1.9,0,3.5-0.7,5-1.5V30z M61,21.8c-0.1-1.9-1-3.6-3.2-3.6c-2.2,0-3.3,1.5-3.5,3.6H61z"/>
			<path class="st1" d="M66.3,15.7h4.6l3,4.9l2.9-4.9h4.2l-4.5,7.2l5.1,7.9h-4.7l-3.4-5.6l-3.4,5.6h-4.3l5.2-7.9L66.3,15.7z"/>
			<path class="st1" d="M83.6,9.2h3.9v3.8h-3.9V9.2z M83.6,15.7h3.9v15.1h-3.9V15.7z"/>
			<path class="st1" d="M98.3,15.3c4.5,0,7.9,3,7.9,8c0,4.3-2.9,7.8-7.9,7.8c-5,0-7.9-3.5-7.9-7.8C90.4,18.4,93.9,15.3,98.3,15.3z
				 M98.3,28.1c3,0,3.8-2.7,3.8-5.2c0-2.3-1.2-4.5-3.8-4.5c-2.6,0-3.8,2.2-3.8,4.5C94.5,25.4,95.3,28.1,98.3,28.1z"/>
			<path class="st1" d="M109,15.7h3.7v2.1h0.1c1.2-1.7,2.9-2.4,5-2.4c3.6,0,5.1,2.5,5.1,5.9v9.5H119v-8.1c0-1.8,0-4.3-2.6-4.3
				c-2.8,0-3.5,3.1-3.5,5v7.4H109V15.7z"/>
		</g>
	</g>
	<g>
		<path class="st1" d="M58.3,45.8c-0.7,0.4-1.9,0.8-3.2,0.8c-2.6,0-3.7-1.8-3.7-3.9c0-2.9,2.2-6.3,5.3-6.3c1.9,0,2.9,1.1,2.9,2.5
			c0,2.6-2.9,3.2-6.5,3.2c-0.1,0.4,0,1.3,0.2,1.8c0.4,0.9,1.2,1.3,2.2,1.3c1.1,0,2-0.3,2.6-0.7L58.3,45.8z M57.9,38.9
			c0-0.8-0.6-1.2-1.5-1.2c-1.6,0-2.8,1.6-3.2,3.1C55.8,40.8,57.9,40.5,57.9,38.9L57.9,38.9z"/>
		<path class="st1" d="M60.4,46.4l1.3-6.9c0.2-1.1,0.3-2,0.4-2.8h1.5l-0.3,1.8h0.1c0.9-1.4,2.1-2.1,3.4-2.1c1.5,0,2.2,0.9,2.3,2.2
			c0.9-1.4,2.1-2.2,3.6-2.2c1.1,0,2.4,0.7,2.4,2.6c0,0.4-0.1,1.1-0.2,1.7l-1.1,5.8h-1.6l1-5.6c0.1-0.4,0.1-0.9,0.1-1.3
			c0-1-0.4-1.7-1.5-1.7c-1.2,0-2.7,1.4-3.1,3.6l-0.9,5h-1.6l1.1-5.7c0.1-0.4,0.1-0.8,0.1-1.2c0-0.8-0.2-1.7-1.5-1.7
			c-1.2,0-2.7,1.6-3.1,3.7L62,46.4H60.4z"/>
		<path class="st1" d="M75.8,50.4l2-10.3c0.2-1.2,0.4-2.5,0.5-3.5h1.5l-0.3,1.9h0c0.9-1.3,2.2-2.1,3.5-2.1c2.1,0,3,1.7,3,3.5
			c0,3.4-2.5,6.7-5.7,6.7c-1,0-1.7-0.2-2.1-0.4h0l-0.8,4.2H75.8z M78.5,44.7c0.4,0.3,1.1,0.5,1.9,0.5c2.2,0,3.9-2.7,3.9-5.2
			c0-1-0.4-2.3-1.9-2.3c-1.3,0-2.9,1.5-3.4,4.2L78.5,44.7z"/>
		<path class="st1" d="M87.2,46.4l1.2-6.3c0.2-1.3,0.4-2.6,0.5-3.5h1.5c-0.1,0.7-0.2,1.4-0.3,2.1h0.1c0.6-1.3,1.7-2.3,3-2.3
			c0.2,0,0.3,0,0.5,0l-0.3,1.7c-0.1,0-0.3,0-0.5,0c-1.4,0-2.7,1.8-3.1,4l-0.8,4.3H87.2z"/>
		<path class="st1" d="M100.5,45.8c-0.7,0.4-1.9,0.8-3.2,0.8c-2.6,0-3.7-1.8-3.7-3.9c0-2.9,2.2-6.3,5.3-6.3c1.9,0,2.9,1.1,2.9,2.5
			c0,2.6-2.9,3.2-6.5,3.2c-0.1,0.4,0,1.3,0.2,1.8c0.4,0.9,1.2,1.3,2.2,1.3c1.1,0,2-0.3,2.6-0.7L100.5,45.8z M100.2,38.9
			c0-0.8-0.6-1.2-1.5-1.2c-1.6,0-2.8,1.6-3.2,3.1C98.1,40.8,100.2,40.5,100.2,38.9L100.2,38.9z"/>
		<path class="st1" d="M102.7,44.7c0.4,0.3,1.3,0.6,2.1,0.6c1.1,0,1.9-0.7,1.9-1.6c0-0.8-0.3-1.2-1.4-1.8c-1.1-0.6-1.8-1.5-1.8-2.5
			c0-1.7,1.5-3,3.5-3c0.9,0,1.7,0.2,2,0.5l-0.5,1.3c-0.3-0.2-0.9-0.4-1.7-0.4c-1,0-1.8,0.6-1.8,1.5c0,0.7,0.5,1.1,1.3,1.6
			c1.1,0.6,1.8,1.5,1.8,2.6c0,2.1-1.7,3.2-3.7,3.2c-1,0-2-0.3-2.4-0.7L102.7,44.7z"/>
		<path class="st1" d="M116.6,46.4c0-0.6,0.1-1.5,0.2-2.5h0c-1.1,2-2.4,2.7-3.8,2.7c-1.7,0-2.8-1.4-2.8-3.2c0-3.4,2.5-7,6.7-7
			c0.9,0,1.9,0.2,2.6,0.4l-1,5.1c-0.3,1.7-0.4,3.4-0.4,4.5H116.6z M117.7,37.9c-0.2-0.1-0.6-0.1-1.2-0.1c-2.5,0-4.6,2.6-4.6,5.3
			c0,1.1,0.4,2.2,1.7,2.2c1.4,0,3-1.8,3.5-4.4L117.7,37.9z"/>
		<path class="st1" d="M120.8,44.7c0.4,0.3,1.3,0.6,2.1,0.6c1.1,0,1.9-0.7,1.9-1.6c0-0.8-0.3-1.2-1.4-1.8c-1.1-0.6-1.8-1.5-1.8-2.5
			c0-1.7,1.5-3,3.5-3c0.9,0,1.7,0.2,2,0.5l-0.5,1.3c-0.3-0.2-0.9-0.4-1.7-0.4c-1,0-1.8,0.6-1.8,1.5c0,0.7,0.5,1.1,1.3,1.6
			c1.1,0.6,1.8,1.5,1.8,2.6c0,2.1-1.7,3.2-3.7,3.2c-1,0-2-0.3-2.4-0.7L120.8,44.7z"/>
		<path class="st1" d="M135.8,46.6c-2.4,0-3.8-1.8-3.8-4c0-3.2,2.2-6.2,5.4-6.2c2.6,0,3.8,2,3.8,4C141.2,43.5,139.1,46.6,135.8,46.6
			L135.8,46.6z M136,45.3c2,0,3.5-2.5,3.5-4.8c0-1.1-0.5-2.7-2.3-2.7c-2.1,0-3.5,2.6-3.5,4.8C133.7,44.1,134.6,45.3,136,45.3
			L136,45.3z"/>
		<path class="st1" d="M142.4,46.4l1.3-6.9c0.2-1.1,0.4-2,0.5-2.8h1.5l-0.3,1.9h0c0.9-1.4,2.2-2.1,3.6-2.1c1.1,0,2.5,0.7,2.5,2.7
			c0,0.4-0.1,1-0.2,1.6l-1.1,5.7h-1.7l1.1-5.6c0.1-0.4,0.1-0.8,0.1-1.2c0-1-0.4-1.7-1.5-1.7c-1.2,0-2.9,1.4-3.3,3.8l-0.9,4.7H142.4z
			"/>
		<path class="st1" d="M153.1,46.4l2.7-14.3h1.7l-2.7,14.3H153.1z"/>
		<path class="st1" d="M157.7,46.4l1.9-9.7h1.7l-1.9,9.7H157.7z M160.9,35c-0.6,0-0.9-0.4-0.9-1c0-0.6,0.5-1.1,1.1-1.1
			c0.6,0,1,0.4,1,1C162,34.5,161.5,35,160.9,35L160.9,35z"/>
		<path class="st1" d="M162.4,46.4l1.3-6.9c0.2-1.1,0.4-2,0.5-2.8h1.5l-0.3,1.9h0c0.9-1.4,2.2-2.1,3.6-2.1c1.1,0,2.5,0.7,2.5,2.7
			c0,0.4-0.1,1-0.2,1.6l-1.1,5.7h-1.7l1.1-5.6c0.1-0.4,0.1-0.8,0.1-1.2c0-1-0.4-1.7-1.5-1.7c-1.2,0-2.9,1.4-3.3,3.8l-0.9,4.7H162.4z
			"/>
		<path class="st1" d="M180.1,45.8c-0.7,0.4-1.9,0.8-3.2,0.8c-2.6,0-3.7-1.8-3.7-3.9c0-2.9,2.2-6.3,5.3-6.3c1.9,0,2.9,1.1,2.9,2.5
			c0,2.6-2.9,3.2-6.5,3.2c-0.1,0.4,0,1.3,0.2,1.8c0.4,0.9,1.2,1.3,2.2,1.3c1.1,0,2-0.3,2.6-0.7L180.1,45.8z M179.8,38.9
			c0-0.8-0.6-1.2-1.5-1.2c-1.6,0-2.8,1.6-3.2,3.1C177.7,40.8,179.8,40.5,179.8,38.9L179.8,38.9z"/>
	</g>
</g>
</svg>
