<?xml version="1.0" encoding="UTF-8"?>
<svg id="Capa_2" data-name="Capa 2" xmlns="http://www.w3.org/2000/svg" width="120" height="120" viewBox="0 0 120 120">
  <defs>
    <style>
      .cls-1 {
        fill: #615d61;
      }
    </style>
  </defs>
  <g id="Capa_1-2" data-name="Capa 1">
    <g>
      <path class="cls-1" d="M60,0C26.86,0,0,26.86,0,60s26.86,60,60,60,60-26.86,60-60S93.14,0,60,0Zm41.97,77.43c-.34,6.77-1.89,12.77-6.83,17.71-4.94,4.96-10.94,6.51-17.71,6.83-6.98,.4-27.9,.4-34.87,0-6.77-.34-12.75-1.89-17.71-6.83-4.96-4.94-6.51-10.94-6.83-17.71-.4-6.98-.4-27.9,0-34.87,.34-6.77,1.87-12.77,6.83-17.71s10.96-6.49,17.71-6.81c6.98-.4,27.9-.4,34.87,0,6.77,.34,12.77,1.89,17.71,6.83,4.96,4.94,6.51,10.94,6.83,17.71,.4,6.98,.4,27.88,0,34.85Z"/>
      <path class="cls-1" d="M92.96,35.08c-1.49-3.72-4.34-6.56-8.03-8.03-5.55-2.19-18.77-1.7-24.92-1.7s-19.35-.51-24.92,1.7c-3.72,1.49-6.56,4.34-8.03,8.03-2.19,5.55-1.7,18.77-1.7,24.92s-.51,19.35,1.7,24.92c1.49,3.72,4.34,6.56,8.03,8.03,5.55,2.19,18.77,1.7,24.92,1.7s19.35,.51,24.92-1.7c3.72-1.49,6.56-4.34,8.03-8.03,2.21-5.55,1.7-18.77,1.7-24.92s.51-19.35-1.7-24.92Zm-32.95,46.59c-12,0-21.67-9.68-21.67-21.67s9.68-21.67,21.67-21.67,21.67,9.68,21.67,21.67-9.68,21.67-21.67,21.67Zm22.56-39.17c-2.81,0-5.05-2.26-5.05-5.05s2.26-5.05,5.05-5.05,5.05,2.26,5.05,5.05-2.26,5.05-5.05,5.05Z"/>
      <circle class="cls-1" cx="60.01" cy="60" r="14.09" transform="translate(-12.18 15.39) rotate(-13.28)"/>
    </g>
  </g>
</svg>