<?xml version="1.0" encoding="UTF-8"?>
<svg id="Capa_2" data-name="Capa 2" xmlns="http://www.w3.org/2000/svg" width="120" height="120" viewBox="0 0 120 120">
  <defs>
    <style>
      .cls-1 {
        fill: #615d61;
      }
    </style>
  </defs>
  <g id="Capa_1-2" data-name="Capa 1">
    <path class="cls-1" d="M60,0C26.86,0,0,26.86,0,60s26.86,60,60,60,60-26.86,60-60S93.14,0,60,0Zm-20.2,96.57h-15.17V47.74h15.17v48.84Zm-7.59-55.5c-4.85,0-8.78-4.02-8.78-8.87,0-4.85,3.93-8.78,8.78-8.78,4.85,0,8.78,3.93,8.78,8.78,0,4.85-3.93,8.87-8.78,8.87Zm64.37,55.5h-15.15v-23.77c0-5.67-.11-12.93-7.88-12.93s-9.09,6.16-9.09,12.52v24.18h-15.15V47.74h14.54v6.66h.21c2.02-3.84,6.97-7.89,14.35-7.89,15.35,0,18.17,10.11,18.17,23.23v26.83Z"/>
  </g>
</svg>