<svg width="185" height="20" viewBox="0 0 185 20" fill="none" xmlns="http://www.w3.org/2000/svg">
<path d="M35 8.01384V16H31.5123V8.70443C31.5123 7.08314 30.4778 6.18246 29.0591 6.18246C27.6699 6.18246 26.5764 7.20323 26.5468 8.49426V16H23V3.33026H26.3104V4.50116C27.1675 3.60047 28.468 3 30.0936 3C33.0788 3 35 5.04158 35 8.01384Z" fill="#1500A1"/>
<path d="M37 9.4999C37 5.76465 39.9039 3 44 3C48.0655 3 51 5.79406 51 9.4999C51 13.2057 48.0961 15.9998 44 15.9998C39.8734 16.0292 37 13.2057 37 9.4999ZM47.3319 9.4999C47.3319 7.52935 46.0175 6.11758 44 6.11758C41.9825 6.11758 40.6376 7.49989 40.6376 9.5293C40.6376 11.4999 41.9825 12.941 44 12.941C45.9563 12.9116 47.3319 11.4999 47.3319 9.4999Z" fill="#1500A1"/>
<path d="M64 3.03074L59.5023 16H55.4977L51 3H54.5692L57.5 12.435L60.4598 3H64V3.03074Z" fill="#1500A1"/>
<path d="M65 9.4999C65 5.76465 67.6965 3 71.5002 3C75.275 3 78 5.79406 78 9.4999C78 13.2057 75.3035 15.9998 71.5002 15.9998C67.6965 16.0292 65 13.2057 65 9.4999ZM74.6224 9.4999C74.6224 7.52935 73.4018 6.11758 71.5287 6.11758C69.6549 6.11758 68.4062 7.49989 68.4062 9.5293C68.4062 11.4999 69.6549 12.941 71.5287 12.941C73.3449 12.9116 74.6224 11.4999 74.6224 9.4999Z" fill="#1500A1"/>
<path d="M94 9.50432C94 13.2296 91.3087 16.0087 87.638 16.0087C85.4353 16.0087 83.6613 14.9739 82.6213 13.3183V20H81V3.26609H82.5293V5.92696C83.5387 4.12348 85.374 3 87.668 3C91.3693 3 94 5.77913 94 9.50432ZM92.3793 9.50432C92.3793 6.54783 90.2987 4.38956 87.4847 4.38956C84.6093 4.38956 82.5907 6.4887 82.5907 9.50432C82.5907 12.52 84.5787 14.6192 87.4847 14.6192C90.2687 14.6192 92.3793 12.4313 92.3793 9.50432Z" fill="#1500A1"/>
<path d="M109 3.20776V15.7329H107.467V13.0319C106.486 14.8722 104.677 16 102.347 16C98.6676 16 96 13.2101 96 9.44064C96 5.7306 98.6977 3 102.347 3C104.646 3 106.486 4.09817 107.467 5.90868V3.17808H109V3.20776ZM107.406 9.4703C107.406 6.47261 105.413 4.33562 102.5 4.33562C99.7101 4.33562 97.5944 6.56165 97.5944 9.4703C97.5944 12.4384 99.6486 14.605 102.5 14.605C105.382 14.605 107.406 12.468 107.406 9.4703Z" fill="#1500A1"/>
<path d="M123 3L116.102 20H114.565L116.363 15.6826H116.015L111 3H112.594L116.913 14.2734L121.377 3H123Z" fill="#1500A1"/>
<path d="M145 8.15774V16H143.407V8.42924C143.407 6.0464 141.963 4.41763 139.647 4.44779C137.361 4.44779 135.828 6.25753 135.797 7.82595V16H134.173V8.42924C134.173 6.0464 132.76 4.41763 130.444 4.44779C128.158 4.44779 126.624 6.22737 126.594 7.82595V16H125V3.27146H126.534V5.35266C127.256 4.08584 128.79 3 130.865 3C133.151 3 134.684 4.05568 135.376 5.86542C135.978 4.41763 137.602 3 140.008 3C143.136 3 145 5.14152 145 8.15774Z" fill="#1500A1"/>
<path d="M154.19 14.6145C156.409 14.6145 157.81 13.7007 158.511 11.9025L159.709 12.6395C158.832 14.7325 157.051 16 154.19 16C150.57 16 148 13.229 148 9.51477C148 5.85942 150.657 3 154.102 3C157.635 3 160 5.77098 160 9.21997C160 9.48525 160 9.75059 159.971 9.92742H149.577C149.723 12.7279 151.591 14.6145 154.19 14.6145ZM158.482 8.74833C158.307 6.06576 156.643 4.29705 154.132 4.29705C151.621 4.29705 149.84 6.06576 149.577 8.74833H158.482Z" fill="#1500A1"/>
<path d="M175 8.26069V16H173.272V8.53275C173.272 5.93281 171.704 4.39099 169.048 4.42123C166.488 4.42123 164.728 6.17467 164.696 8.01877V16H163V3.24219H164.632V5.38864C165.464 4.08868 167.16 3.00033 169.464 3.00033C172.952 2.9701 175 5.02586 175 8.26069Z" fill="#1500A1"/>
<path d="M178.595 11.8641V4.64905H176V3.23018H177.543C178.365 3.23018 178.726 2.86792 178.726 2.1132V0H180.401V3.26037H184.737V4.67924H180.368V11.7434C180.368 13.5547 181.387 14.6113 183.325 14.6113H185V16H183.062C180.138 16 178.595 14.4302 178.595 11.8641Z" fill="#1500A1"/>
<path d="M16.6666 9H0.333333C0.151515 9 0 9.12293 0 9.31965V11.6804C0 11.8525 0.151515 12 0.333333 12H16.6666C16.8484 12 17 11.8525 17 11.6804V9.31965C17 9.12293 16.8484 9 16.6666 9Z" fill="url(#paint0_linear_84_331)"/>
<path d="M0.333333 8H16.6666C16.8484 8 17 7.82861 17 7.6286V5.37143C17 5.17143 16.8484 5 16.6666 5H0.333333C0.151515 5 0 5.17143 0 5.37143V7.6286C0 7.82861 0.151515 8 0.333333 8Z" fill="url(#paint1_linear_84_331)"/>
<path d="M15.6667 18H1.30302C0.575756 18 0 17.3214 0 16.4643V13.4286C0 13.1785 0.151515 13 0.363636 13H16.6364C16.8484 13 17 13.1785 17 13.4286V16.4643C17 17.2857 16.3939 18 15.6667 18Z" fill="url(#paint2_linear_84_331)"/>
<path d="M16.6628 3H0.364214C0.151756 3 0 2.875 0 2.7V2.075C0 1.475 0.576672 1 1.3051 1H15.6916C16.42 1 16.9967 1.475 16.9967 2.075V2.7C17.027 2.875 16.8449 3 16.6628 3Z" fill="url(#paint3_linear_84_331)"/>
<defs>
<linearGradient id="paint0_linear_84_331" x1="8.55055" y1="14.865" x2="8.4548" y2="3.61745" gradientUnits="userSpaceOnUse">
<stop offset="0.0409069" stop-color="#1500A1"/>
<stop offset="0.7853" stop-color="#8854FF"/>
<stop offset="0.9702" stop-color="#00DFCC"/>
</linearGradient>
<linearGradient id="paint1_linear_84_331" x1="8.59868" y1="15.8999" x2="8.46943" y2="2.83162" gradientUnits="userSpaceOnUse">
<stop offset="0.0409069" stop-color="#1500A1"/>
<stop offset="0.7853" stop-color="#8854FF"/>
<stop offset="0.9702" stop-color="#00DFCC"/>
</linearGradient>
<linearGradient id="paint2_linear_84_331" x1="8.50214" y1="15.8414" x2="8.3001" y2="-0.502759" gradientUnits="userSpaceOnUse">
<stop offset="0.0409069" stop-color="#1500A1"/>
<stop offset="0.7853" stop-color="#8854FF"/>
<stop offset="0.9702" stop-color="#00DFCC"/>
</linearGradient>
<linearGradient id="paint3_linear_84_331" x1="8.64914" y1="13.4979" x2="8.55019" y2="2.05155" gradientUnits="userSpaceOnUse">
<stop offset="0.0409069" stop-color="#1500A1"/>
<stop offset="0.7853" stop-color="#8854FF"/>
<stop offset="0.9702" stop-color="#00DFCC"/>
</linearGradient>
</defs>
</svg>
