<svg width="31" height="20" viewBox="0 0 31 20" fill="none" xmlns="http://www.w3.org/2000/svg">
<path d="M22.6087 14.2752V6.23224H25.8872V14.0199L30.5245 12.5243L25.0411 0L0 1.40476L4.90546 13.7646V6.12435H8.35594C8.748 6.14037 9.27251 6.18417 9.7746 6.23117C11.9912 6.44482 12.9431 7.63807 12.9431 9.2223C12.9431 10.8065 10.8621 11.893 8.83559 11.893C8.60414 11.893 8.39049 11.888 8.19464 11.878V14.2752H5.11056L7.38276 20L25.0903 14.2752H22.6087ZM21.4229 12.0179V13.8639C14.616 15.6094 13.2699 12.1996 13.2699 9.96688C13.2699 7.73422 15.697 5.08386 21.3887 6.48115L21.4272 8.47666C17.355 7.43831 16.761 9.46801 16.761 10.2553C16.761 11.0426 17.559 13.3191 21.4229 12.0222V12.0179ZM24.3179 1.60453C24.7078 1.60432 25.0889 1.71973 25.4132 1.93617C25.7375 2.15262 25.9903 2.46036 26.1396 2.82049C26.2889 3.18061 26.3281 3.57693 26.2522 3.95933C26.1763 4.34173 25.9886 4.69301 25.713 4.96876C25.4374 5.24451 25.0862 5.43233 24.7039 5.50847C24.3215 5.5846 23.9252 5.54563 23.565 5.39649C23.2048 5.24734 22.8969 4.99472 22.6803 4.67058C22.4637 4.34644 22.348 3.96533 22.348 3.57547C22.348 3.05293 22.5555 2.55178 22.9249 2.18218C23.2943 1.81259 23.7954 1.60481 24.3179 1.60453" fill="#286A73"/>
<path d="M9.86335 8.95952C9.86335 8.4051 9.53005 8.0312 8.75235 7.95536C8.57609 7.93827 8.39235 7.92331 8.25454 7.91797H8.05371V9.93912C8.16695 9.93912 8.3571 9.93912 8.42119 9.93912C9.13159 9.93912 9.86121 9.51182 9.86121 8.96059" fill="#286A73"/>
</svg>
