<?xml version="1.0" encoding="UTF-8"?>
<svg id="Capa_2" data-name="Capa 2" xmlns="http://www.w3.org/2000/svg" width="120" height="120" viewBox="0 0 120 120">
  <defs>
    <style>
      .cls-1 {
        fill: #615d61;
      }
    </style>
  </defs>
  <g id="Capa_1-2" data-name="Capa 1">
    <path class="cls-1" d="M60,0C26.86,0,0,26.86,0,60s26.86,60,60,60,60-26.86,60-60S93.14,0,60,0Zm33.8,42.67c.05,.76,.05,1.51,.05,2.27,0,23.05-17.55,49.61-49.61,49.61-9.88,0-19.06-2.86-26.78-7.83,1.4,.16,2.75,.22,4.21,.22,8.15,0,15.66-2.75,21.65-7.45-7.67-.16-14.09-5.18-16.3-12.09,1.08,.16,2.16,.27,3.29,.27,1.57,0,3.13-.22,4.59-.59-7.99-1.62-13.98-8.64-13.98-17.11v-.22c2.32,1.3,5.02,2.11,7.88,2.21-4.7-3.13-7.77-8.48-7.77-14.52,0-3.24,.86-6.21,2.38-8.8,8.58,10.58,21.49,17.49,35.96,18.25-.27-1.3-.43-2.65-.43-3.99,0-9.61,7.77-17.44,17.44-17.44,5.02,0,9.56,2.11,12.74,5.51,3.94-.76,7.72-2.21,11.07-4.21-1.3,4.05-4.05,7.45-7.67,9.61,3.51-.38,6.91-1.35,10.04-2.7-2.38,3.46-5.34,6.53-8.75,9.02Z"/>
  </g>
</svg>