<?xml version="1.0" encoding="UTF-8"?>
<svg id="Capa_2" data-name="Capa 2" xmlns="http://www.w3.org/2000/svg" width="120" height="120" viewBox="0 0 120 120">
  <defs>
    <style>
      .cls-1 {
        fill: #615d61;
      }
    </style>
  </defs>
  <g id="Capa_1-2" data-name="Capa 1">
    <g>
      <polygon class="cls-1" points="50.52 73.84 74.74 60.07 50.52 46.29 50.52 73.84"/>
      <path class="cls-1" d="M60,0C26.86,0,0,26.86,0,60s26.86,60,60,60,60-26.86,60-60S93.14,0,60,0Zm36.2,90.63c-7.23,1.95-36.2,1.95-36.2,1.95,0,0-28.98,0-36.2-1.95-3.99-1.07-7.13-4.1-8.19-8.11-1.94-7.27-1.94-22.45-1.94-22.45,0,0,0-15.17,1.94-22.45,1.07-4.01,4.21-7.17,8.19-8.25,7.23-1.95,36.2-1.95,36.2-1.95,0,0,28.98,0,36.2,1.95,3.99,1.07,7.13,4.23,8.19,8.25,1.94,7.27,1.94,22.45,1.94,22.45,0,0,0,15.18-1.94,22.45-1.07,4.01-4.21,7.04-8.19,8.11Z"/>
    </g>
  </g>
</svg>